<svg width="196" height="196" viewBox="0 0 196 196" fill="none" xmlns="http://www.w3.org/2000/svg">
<path d="M98 0C152.124 2.57706e-07 196 43.8761 196 98C196 152.124 152.124 196 98 196C43.8761 196 2.57738e-07 152.124 0 98C0 43.8761 43.8761 0 98 0ZM106.792 45.7334C89.1111 45.7335 82.8877 54.6468 82.8877 69.6357V80.667H71.8662V99.04H82.8877V152.355H104.948V99.0381H119.666L121.616 80.6641H104.948L104.973 71.4688C104.973 66.6767 105.429 64.1084 112.312 64.1084H121.512V45.7334H106.792Z" fill="white"/>
</svg>
