<svg width="392" height="392" viewBox="0 0 392 392" fill="none" xmlns="http://www.w3.org/2000/svg">
<g id="Facebook">
<path id="Combined Shape" d="M196 0C304.248 5.15413e-07 392 87.7522 392 196C392 304.248 304.248 392 196 392C87.7522 392 5.15475e-07 304.248 0 196C0 87.7522 87.7522 0 196 0ZM213.584 91.4668C178.222 91.4669 165.775 109.294 165.775 139.271V161.334H143.732V198.08H165.775V304.711H209.896V198.076H239.332L243.232 161.328H209.896L209.945 142.938C209.945 133.353 210.857 128.217 224.623 128.217H243.023V91.4668H213.584Z" fill="white"/>
</g>
</svg>
