<svg width="392" height="318" viewBox="0 0 392 318" fill="none" xmlns="http://www.w3.org/2000/svg">
<g id="Instagram">
<path id="Combined Shape" d="M196 0C304.248 5.15413e-07 392 87.7522 392 196C392 304.248 304.248 392 196 392C87.7522 392 5.15475e-07 304.248 0 196C0 87.7522 87.7522 0 196 0ZM195.992 91.4668C167.619 91.4668 164.054 91.5903 152.906 92.0977C141.778 92.6073 134.182 94.3701 127.535 96.9551C120.66 99.625 114.828 103.196 109.018 109.008C103.203 114.818 99.6318 120.651 96.9531 127.523C94.3615 134.172 92.5966 141.772 92.0957 152.896C91.597 164.046 91.4668 167.612 91.4668 196C91.4668 224.39 91.5924 227.943 92.0977 239.094C92.6095 250.222 94.3723 257.818 96.9551 264.465C99.6272 271.34 103.199 277.172 109.012 282.982C114.82 288.797 120.651 292.377 127.521 295.047C134.172 297.632 141.772 299.395 152.898 299.904C164.048 300.412 167.609 300.535 195.996 300.535C224.388 300.535 227.941 300.412 239.092 299.904C250.22 299.395 257.826 297.632 264.477 295.047C271.349 292.377 277.173 288.797 282.98 282.982C288.795 277.172 292.366 271.34 295.045 264.467C297.615 257.818 299.38 250.22 299.902 239.096C300.403 227.945 300.533 224.39 300.533 196C300.533 167.612 300.403 164.048 299.902 152.898C299.38 141.77 297.615 134.174 295.045 127.527C292.366 120.652 288.795 114.818 282.98 109.008C277.166 103.193 271.35 99.6228 264.469 96.9551C257.805 94.3701 250.205 92.6073 239.076 92.0977C227.928 91.5903 224.377 91.4668 195.992 91.4668Z" fill="white"/>
<path id="Combined Shape_2" d="M186.632 110.304C189.416 110.3 192.522 110.304 196.011 110.304C223.921 110.304 227.23 110.405 238.251 110.906C248.443 111.372 253.975 113.075 257.66 114.505C262.538 116.4 266.015 118.665 269.671 122.324C273.33 125.982 275.597 129.467 277.496 134.345C278.926 138.026 280.631 143.558 281.095 153.75C281.596 164.769 281.705 168.08 281.705 195.978C281.705 223.875 281.596 227.185 281.095 238.205C280.629 248.396 278.926 253.928 277.496 257.609C275.601 262.487 273.33 265.96 269.671 269.617C266.013 273.275 262.54 275.54 257.66 277.435C253.979 278.872 248.443 280.572 238.251 281.039C227.232 281.539 223.921 281.648 196.011 281.648C168.098 281.648 164.789 281.539 153.769 281.039C143.577 280.568 138.046 278.864 134.359 277.433C129.481 275.538 125.996 273.273 122.337 269.615C118.679 265.956 116.414 262.481 114.515 257.601C113.084 253.921 111.379 248.389 110.916 238.197C110.415 227.177 110.314 223.866 110.314 195.951C110.314 168.036 110.415 164.743 110.916 153.724C111.382 143.533 113.084 138.001 114.515 134.316C116.41 129.438 118.679 125.953 122.337 122.294C125.996 118.636 129.481 116.369 134.359 114.47C138.044 113.033 143.578 111.335 153.769 110.867C163.412 110.431 167.15 110.301 186.632 110.279V110.304ZM196.009 142.316C166.364 142.317 142.328 166.354 142.328 196C142.328 225.646 166.365 249.671 196.011 249.671C225.657 249.671 249.685 225.646 249.685 196C249.685 166.353 225.655 142.316 196.009 142.316ZM251.81 127.664C244.885 127.664 239.265 133.275 239.265 140.203C239.265 147.128 244.885 152.746 251.81 152.746C258.735 152.746 264.355 147.128 264.355 140.203C264.355 133.277 258.735 127.658 251.81 127.658V127.664Z" fill="white"/>
<path id="Shape" fill-rule="evenodd" clip-rule="evenodd" d="M196.011 161.158C215.254 161.158 230.855 176.757 230.855 196.003C230.855 215.246 215.254 230.847 196.011 230.847C176.765 230.847 161.166 215.246 161.166 196.003C161.166 176.757 176.765 161.158 196.011 161.158V161.158Z" fill="white"/>
</g>
</svg>
