<svg width="196" height="159" viewBox="0 0 196 159" fill="none" xmlns="http://www.w3.org/2000/svg">
<path d="M98 0C152.124 2.57706e-07 196 43.8761 196 98C196 152.124 152.124 196 98 196C43.8761 196 2.57738e-07 152.124 0 98C0 43.8761 43.8761 0 98 0ZM97.9961 45.7334C83.8093 45.7334 82.0271 45.7952 76.4531 46.0488C70.889 46.3036 67.0908 47.185 63.7676 48.4775C60.3301 49.8125 57.4138 51.5978 54.5088 54.5039C51.6015 57.409 49.8159 60.3253 48.4766 63.7617C47.1808 67.0861 46.2983 70.8861 46.0479 76.4482C45.7985 82.023 45.7334 83.8058 45.7334 98C45.7334 112.195 45.7962 113.972 46.0488 119.547C46.3047 125.111 47.1861 128.909 48.4775 132.232C49.8136 135.67 51.5997 138.586 54.5059 141.491C57.4098 144.398 60.3255 146.188 63.7607 147.523C67.0862 148.816 70.886 149.697 76.4492 149.952C82.0242 150.206 83.8047 150.268 97.998 150.268C112.194 150.268 113.971 150.206 119.546 149.952C125.11 149.697 128.913 148.816 132.238 147.523C135.675 146.188 138.586 144.398 141.49 141.491C144.398 138.586 146.183 135.67 147.522 132.233C148.807 128.909 149.69 125.11 149.951 119.548C150.202 113.973 150.267 112.195 150.267 98C150.267 83.8058 150.202 82.0241 149.951 76.4492C149.69 70.8851 148.807 67.0869 147.522 63.7637C146.183 60.326 144.398 57.4091 141.49 54.5039C138.583 51.5967 135.675 49.8114 132.234 48.4775C128.902 47.185 125.102 46.3036 119.538 46.0488C113.964 45.7952 112.189 45.7334 97.9961 45.7334Z" fill="white"/>
<path d="M93.3162 55.1521C94.7078 55.1499 96.2612 55.1521 98.0056 55.1521C111.961 55.1521 113.615 55.2024 119.126 55.4529C124.222 55.6859 126.987 56.5373 128.83 57.2527C131.269 58.2 133.008 59.3327 134.836 61.1619C136.665 62.9912 137.798 64.7335 138.748 67.1726C139.463 69.0128 140.316 71.7788 140.548 76.8748C140.798 82.3846 140.852 84.0402 140.852 97.989C140.852 111.937 140.798 113.593 140.548 119.102C140.315 124.198 139.463 126.964 138.748 128.804C137.8 131.244 136.665 132.98 134.836 134.808C133.006 136.638 131.27 137.77 128.83 138.718C126.99 139.436 124.222 140.286 119.126 140.519C113.616 140.77 111.961 140.824 98.0056 140.824C84.0492 140.824 82.3944 140.77 76.8845 140.519C71.7887 140.284 69.0229 139.432 67.1794 138.717C64.7404 137.769 62.998 136.637 61.1687 134.807C59.3395 132.978 58.207 131.241 57.2576 128.801C56.5422 126.96 55.6897 124.194 55.4578 119.098C55.2073 113.589 55.157 111.933 55.157 97.9753C55.157 84.0182 55.2073 82.3717 55.4578 76.8621C55.6908 71.7663 56.5422 69.0004 57.2576 67.158C58.2049 64.7189 59.3395 62.9765 61.1687 61.1472C62.9981 59.3179 64.7403 58.1846 67.1794 57.2351C69.0218 56.5165 71.7888 55.6675 76.8845 55.4333C81.7061 55.2156 83.5751 55.1503 93.3162 55.1394V55.1521ZM98.0046 71.158C83.1818 71.1584 71.1639 83.1769 71.1638 97.9998C71.1638 112.823 83.1824 124.836 98.0056 124.836C112.829 124.836 124.843 112.823 124.843 97.9998C124.842 83.1767 112.828 71.1581 98.0046 71.158ZM125.905 63.8318C122.442 63.8318 119.633 66.6375 119.633 70.1013C119.633 73.564 122.442 76.3728 125.905 76.3728C129.368 76.3728 132.177 73.564 132.177 70.1013C132.177 66.6386 129.368 63.8289 125.905 63.8289V63.8318Z" fill="white"/>
<path fill-rule="evenodd" clip-rule="evenodd" d="M98.0053 80.5789C107.627 80.5789 115.428 88.3786 115.428 98.0013C115.428 107.623 107.627 115.424 98.0053 115.424C88.3827 115.424 80.5829 107.623 80.5829 98.0013C80.5829 88.3786 88.3827 80.5789 98.0053 80.5789V80.5789Z" fill="white"/>
</svg>
