<svg width="196" height="196" viewBox="0 0 196 196" fill="none" xmlns="http://www.w3.org/2000/svg">
<g id="Twitter">
<path id="Combined Shape" d="M98 0C152.124 2.57706e-07 196 43.8761 196 98C196 152.124 152.124 196 98 196C43.8761 196 2.57738e-07 152.124 0 98C0 43.8761 43.8761 0 98 0ZM120.428 59.4482C116.932 58.4794 111.585 58.6174 108.432 59.7246C99.8633 62.8388 94.4477 70.8665 95.0645 79.6553L95.2705 83.0469L91.8428 82.6318C79.367 81.0401 68.4679 75.6418 59.2139 66.5762L54.6895 62.0781L53.5244 65.3994C51.0567 72.8043 52.6333 80.6242 57.7744 85.8838C60.5164 88.7904 59.8988 89.2057 55.1689 87.4756C53.524 86.922 52.0844 86.5072 51.9473 86.7148C51.4686 87.202 53.1129 93.4975 54.415 95.9883C56.1973 99.4484 59.8309 102.839 63.8066 104.846L67.165 106.438L63.1895 106.507C59.3511 106.507 59.2138 106.576 59.625 108.029C60.996 112.527 66.4112 117.303 72.4434 119.379L76.6934 120.832L72.9922 123.047C67.5083 126.23 61.0647 128.03 54.6211 128.168C51.5364 128.237 49 128.514 49 128.722C49.0004 129.414 57.3626 133.289 62.2295 134.812C76.8304 139.31 94.1739 137.372 107.198 129.69C116.452 124.223 125.706 113.358 130.024 102.839C132.355 97.2334 134.686 86.9918 134.687 82.0781C134.687 78.8947 134.892 78.4791 138.73 74.6729C140.993 72.4583 143.118 70.0358 143.529 69.3438C144.215 68.0293 144.146 68.0298 140.65 69.2061C134.824 71.2822 134.001 71.0048 136.88 67.8906C139.005 65.6763 141.541 61.6632 141.541 60.4863C141.541 60.2787 140.513 60.6243 139.348 61.2471C138.114 61.9391 135.372 62.9777 133.315 63.6006L129.613 64.7764L126.255 62.4932C124.404 61.2475 121.799 59.8635 120.428 59.4482Z" fill="white"/>
</g>
</svg>
