<svg width="392" height="392" viewBox="0 0 392 392" fill="none" xmlns="http://www.w3.org/2000/svg">
<g id="Twitter">
<path id="Combined Shape" d="M196 0C304.248 5.15413e-07 392 87.7522 392 196C392 304.248 304.248 392 196 392C87.7522 392 5.15475e-07 304.248 0 196C0 87.7522 87.7522 0 196 0ZM240.855 118.896C233.863 116.959 223.17 117.235 216.863 119.449C199.727 125.678 188.895 141.733 190.129 159.311L190.541 166.094L183.686 165.264C158.734 162.08 136.936 151.284 118.428 133.152L109.379 124.156L107.049 130.799C102.113 145.609 105.267 161.248 115.549 171.768C121.033 177.581 119.798 178.411 110.338 174.951C107.048 173.844 104.169 173.014 103.895 173.43C102.937 174.404 106.226 186.995 108.83 191.977C112.395 198.897 119.662 205.678 127.613 209.691L134.33 212.875L126.379 213.014C118.702 213.014 118.428 213.152 119.25 216.059C121.992 225.055 132.822 234.605 144.887 238.758L153.387 241.664L145.984 246.094C135.017 252.461 122.129 256.059 109.242 256.336C103.073 256.474 98 257.028 98 257.443C98.0009 258.828 114.725 266.578 124.459 269.623C153.661 278.62 188.348 274.744 214.396 259.381C232.905 248.446 251.412 226.716 260.049 205.678C264.71 194.467 269.373 173.984 269.373 164.156C269.373 157.789 269.784 156.958 277.461 149.346C281.985 144.917 286.236 140.072 287.059 138.688C288.429 136.059 288.291 136.06 281.301 138.412C269.647 142.564 268.002 142.01 273.76 135.781C278.009 131.353 283.081 123.326 283.082 120.973C283.082 120.557 281.026 121.249 278.695 122.494C276.228 123.878 270.744 125.955 266.631 127.201L259.227 129.553L252.51 124.986C248.808 122.495 243.597 119.727 240.855 118.896Z" fill="white"/>
</g>
</svg>
